<svg xmlns="http://www.w3.org/2000/svg" viewBox="0 0 100 20" width="100px" height="20px">
    <path fill="#212121" d="M21.1841 20C21.5411 19.8697 21.9037 19.7359 22.2724 19.5983 22.6346 19.4632 23.8705 19 24.0399 18.9367 33.6397 15.3476 39.6469 14 50 14 60.2711 14 65.3618 15.2218 74.6286 18.9285 75.5844 19.3108 76.4979 19.6675 77.3788 20L83.604 20C81.0931 19.2694 78.465 18.309 75.3714 17.0715 65.8882 13.2782 60.5622 12 50 12 39.3741 12 33.1448 13.3974 23.3395 17.0633 23.1689 17.1271 21.9339 17.59 21.5733 17.7245 19.0985 18.6479 16.9127 19.3995 14.8494 20L21.1841 20 21.1841 20ZM21.1841 0C13.2575 2.8919 8.0767 4 0 4L0 4 0 2C5.7439 2 9.9514 1.4256 14.8494 0L21.1841 0 21.1841 0ZM77.3788 0C85.2386 2.9664 90.5023 4 100 4L100 2C93.1577 2 88.6144 1.4578 83.604 0L77.3788 0 77.3788 0ZM0 14C8.4405 14 13.7183 12.7899 22.2724 9.5983 22.6346 9.4632 23.8705 9 24.0399 8.9367 33.6397 5.3476 39.6469 4 50 4 60.2711 4 65.3618 5.2218 74.6286 8.9285 84.1118 12.7218 89.4378 14 100 14L100 12C89.7289 12 84.6382 10.7782 75.3714 7.0715 65.8882 3.2782 60.5622 2 50 2 39.3741 2 33.1448 3.3974 23.3395 7.0633 23.1689 7.1271 21.9339 7.59 21.5733 7.7245 13.2235 10.8398 8.1635 12 0 12L0 14 0 14 0 14Z"></path>
</svg>