<svg xmlns="http://www.w3.org/2000/svg" viewBox="0 0 16 16">
	<rect fill="#333333" width="16" height="16" rx="100%"></rect>
	<path fill="#999999" d="M8 15A7 7 0 118 1 7 7 0 018 15ZM8 16A8 8 0 108 0 8 8 0 008 16ZM5.255 5.786A.237.237 0 005.496 6.033H6.321C6.459 6.033 6.569 5.92 6.587 5.783 6.677 5.127 7.127 4.649 7.929 4.649 8.615 4.649 9.243 4.992 9.243 5.817 9.243 6.452 8.869 6.744 8.278 7.188 7.605 7.677 7.072 8.248 7.11 9.175L7.113 9.392A.25.25 0 007.363 9.638H8.174A.25.25 0 008.424 9.388V9.283C8.424 8.565 8.697 8.356 9.434 7.797 10.043 7.334 10.678 6.82 10.678 5.741 10.678 4.23 9.402 3.5 8.005 3.5 6.738 3.5 5.35 4.09 5.255 5.786ZM6.812 11.549C6.812 12.082 7.237 12.476 7.822 12.476 8.431 12.476 8.85 12.082 8.85 11.549 8.85 10.997 8.43 10.609 7.821 10.609 7.237 10.609 6.812 10.997 6.812 11.549Z"></path>
</svg>