<?xml version="1.0" standalone="no"?>
<!DOCTYPE svg PUBLIC "-//W3C//DTD SVG 20010904//EN"
 "http://www.w3.org/TR/2001/REC-SVG-20010904/DTD/svg10.dtd">
<svg version="1.0" xmlns="http://www.w3.org/2000/svg"
 width="700.000000pt" height="700.000000pt" viewBox="0 0 700.000000 700.000000"
 preserveAspectRatio="xMidYMid meet">
<metadata>
Created by potrace 1.14, written by Peter Selinger 2001-2017
</metadata>
<g transform="translate(0.000000,700.000000) scale(0.100000,-0.100000)"
fill="#000000" stroke="none">
<path d="M3125 6421 l-209 -118 -57 -89 c-32 -49 -62 -90 -68 -92 -5 -2 -98
29 -205 69 -161 58 -199 69 -211 59 -19 -16 -19 -44 -1 -59 8 -7 87 -52 176
-100 89 -48 161 -92 160 -97 -1 -5 -19 -36 -40 -70 l-38 -61 -159 -61 c-240
-93 -214 -72 -320 -267 l-93 -170 0 -153 0 -154 64 -70 64 -70 -50 -112 c-105
-235 -138 -314 -138 -331 0 -9 86 -137 191 -283 105 -146 193 -271 196 -277 2
-7 -45 -117 -106 -245 -61 -128 -111 -243 -111 -257 0 -69 155 -735 184 -792
10 -18 18 -96 26 -232 l12 -204 146 -415 c80 -228 167 -487 192 -575 l45 -160
75 -37 c41 -21 181 -88 310 -149 129 -61 356 -170 505 -241 352 -170 342 -166
364 -142 10 10 136 208 281 439 145 231 324 517 400 635 160 252 230 368 230
378 0 5 -94 159 -210 342 -115 184 -210 340 -210 346 0 10 98 306 104 311 1 1
85 -29 187 -67 101 -39 194 -70 206 -70 29 0 195 59 212 75 12 11 12 31 3 117
-7 57 -17 183 -22 280 l-11 178 -85 145 -85 145 71 341 c58 281 68 344 58 358
-7 9 -46 55 -86 103 -59 71 -79 88 -108 94 -19 3 -38 4 -41 0 -3 -3 -25 37
-48 88 -101 224 -227 433 -402 664 -62 82 -63 85 -63 146 l0 62 290 424 c160
233 290 430 290 436 0 19 -28 37 -49 31 -10 -2 -207 -147 -436 -322 -229 -174
-418 -316 -420 -314 -2 2 -33 135 -69 294 -36 160 -70 300 -76 312 -6 14 -36
35 -77 54 -62 29 -81 32 -208 40 -77 4 -180 8 -230 8 l-90 0 -210 -118z m466
34 c175 -7 189 -9 235 -34 l48 -26 58 -250 c31 -137 57 -256 58 -263 0 -10 -5
-9 -22 2 -12 9 -30 16 -39 16 -10 0 -64 -27 -120 -61 l-103 -60 -143 52 c-102
37 -143 57 -143 68 0 9 14 88 30 176 34 181 37 237 15 255 -27 22 -95 5 -272
-70 -170 -72 -172 -73 -219 -132 -41 -53 -50 -59 -73 -53 -14 4 -27 8 -29 10
-2 1 20 38 48 81 l50 79 202 112 c112 62 210 111 218 109 8 -3 99 -8 201 -11z
m-775 -508 c21 -12 17 -19 -112 -222 -73 -115 -129 -211 -125 -213 4 -1 57 13
117 33 121 39 297 123 389 183 58 39 60 40 90 25 180 -93 425 -233 533 -305
131 -88 136 -90 176 -82 101 19 144 11 292 -49 155 -63 182 -64 206 -12 6 14
14 25 18 25 12 0 163 -217 240 -345 73 -122 183 -340 195 -385 5 -24 -4 -30
-190 -128 l-195 -104 -555 166 c-431 129 -624 192 -865 283 l-311 118 7 175 6
175 45 67 c38 58 62 79 164 148 65 44 147 96 181 114 55 29 63 37 63 62 0 60
-73 33 -270 -99 -213 -143 -227 -156 -424 -417 -156 -206 -185 -240 -197 -228
-22 22 108 416 174 523 102 169 317 505 322 505 3 -1 15 -6 26 -13z m-359
-361 c-99 -159 -104 -170 -171 -373 l-69 -209 -39 42 -38 41 0 134 1 134 82
149 82 148 120 48 c66 26 123 48 127 49 4 1 -39 -73 -95 -163z m-178 -744 c18
-34 98 -469 121 -662 22 -178 25 -180 -158 74 l-163 226 83 190 c46 104 88
190 95 190 7 0 17 -8 22 -18z m911 -168 l71 -27 -25 -31 c-14 -17 -36 -47 -50
-66 l-25 -35 64 -227 65 -228 -136 -242 c-75 -134 -137 -244 -139 -246 -7 -8
-95 249 -89 259 4 7 65 86 136 176 74 96 128 174 128 186 0 35 -78 280 -92
289 -7 4 -17 8 -22 8 -5 0 -74 -64 -153 -142 -115 -114 -146 -140 -153 -128
-5 8 -10 18 -10 21 0 4 47 63 103 131 57 69 137 171 177 226 41 56 75 102 76
102 2 0 35 -12 74 -26z m713 -224 c295 -88 544 -160 553 -160 8 0 120 56 248
125 129 69 238 125 243 125 6 0 39 -35 75 -78 l66 -79 -23 -104 -23 -104 -1
97 c-1 92 -2 98 -27 117 -15 12 -35 21 -46 21 -11 0 -77 -27 -146 -59 -70 -33
-150 -69 -179 -80 -63 -25 -202 -61 -234 -61 -48 0 -621 190 -859 285 -113 45
-135 49 -169 35 -40 -16 -53 -50 -41 -103 23 -100 109 -379 124 -402 9 -14 26
-31 39 -39 13 -8 172 -33 393 -62 l372 -48 -20 -51 c-11 -27 -23 -54 -27 -58
-8 -8 -819 226 -832 241 -7 7 -139 472 -139 490 0 18 90 121 103 117 6 -2 254
-77 550 -165z m-813 -171 c20 -67 21 -79 9 -96 -8 -11 -59 -77 -114 -147 l-99
-128 -13 36 c-12 35 -10 40 47 150 61 115 69 143 48 164 -9 9 -1 23 37 62 27
27 52 47 55 42 4 -4 17 -41 30 -83z m1947 -141 c-3 -7 -5 -2 -5 12 0 14 2 19
5 13 2 -7 2 -19 0 -25z m-371 -127 l151 -98 80 -129 c199 -322 225 -372 229
-438 11 -183 26 -375 30 -406 l6 -36 -76 -24 -75 -23 -153 57 c-177 67 -620
246 -630 255 -12 10 -39 204 -33 233 l7 28 147 0 c161 0 186 7 179 51 l-3 24
-152 3 c-84 1 -153 4 -153 5 0 15 83 240 145 394 81 204 73 192 140 201 6 1
78 -42 161 -97z m-1330 -69 c5 -5 198 -64 429 -132 231 -68 422 -125 424 -126
1 -2 -12 -47 -30 -101 -19 -54 -36 -109 -39 -122 -4 -18 -48 -48 -195 -133
l-190 -110 -42 21 c-50 24 -586 311 -592 316 -4 5 212 395 220 395 3 0 9 -4
15 -8z m1635 -109 c-9 -16 -10 -16 -11 -1 0 9 3 25 7 35 7 16 8 17 11 1 2 -10
-1 -25 -7 -35z m-1403 -618 l163 -87 192 110 192 109 17 -104 c9 -57 18 -110
21 -117 3 -7 90 -48 193 -91 104 -43 193 -81 197 -85 10 -8 -96 -314 -153
-442 l-43 -95 -86 -6 c-47 -4 -167 -9 -266 -13 l-180 -6 -196 165 c-120 102
-199 175 -202 189 -3 13 -33 154 -67 313 -33 160 -63 296 -66 303 -2 8 24 -2
58 -21 35 -19 136 -74 226 -122z"/>
<path d="M3702 6381 c-29 -4 -57 -12 -61 -19 -9 -15 -70 -348 -78 -430 -5 -40
-2 -56 8 -63 25 -16 207 -11 245 7 48 23 74 70 74 135 0 58 -43 350 -54 368
-8 12 -47 12 -134 2z"/>
<path d="M4541 4749 l-74 -40 -164 12 c-129 9 -166 9 -178 -1 -19 -16 -19 -54
-1 -69 8 -7 87 -16 187 -23 l174 -11 92 47 c98 49 121 72 103 106 -16 30 -56
25 -139 -21z"/>
<path d="M4627 4613 l-88 -55 -169 12 c-137 10 -173 10 -185 0 -18 -15 -20
-54 -2 -68 13 -10 240 -32 336 -32 51 0 64 5 155 63 109 68 127 87 110 115
-21 33 -64 24 -157 -35z"/>
<path d="M3766 2920 c-6 -41 -6 -42 80 -136 l86 -94 229 0 228 0 10 38 c6 20
11 40 11 43 0 3 -105 9 -232 13 l-233 7 -86 85 -86 86 -7 -42z"/>
<path d="M3720 2758 c1 -40 7 -50 84 -131 l83 -89 229 19 228 18 9 38 c5 21 7
41 4 44 -4 3 -105 0 -226 -8 l-219 -13 -90 82 c-49 45 -92 82 -96 82 -3 0 -6
-19 -6 -42z"/>
</g>
</svg>
